<svg width="217" height="112" fill="none" xmlns="http://www.w3.org/2000/svg"><g clip-path="url(#a)" fill-rule="evenodd" clip-rule="evenodd"><path d="M82.718 83.66v-1.925h-4.886v1.925h-.571v-4.13h.57v1.791h4.886v-1.79h.564v4.13h-.564Zm2.485 0v-4.13h4.867v.412h-4.305v1.379h4.191v.409h-4.191v1.516h4.305v.414h-4.867Zm14.743-1.82v-.515c0-.982-.486-1.476-2.027-1.476H96.24v-.367h-.572v.367h-1.657c-1.55 0-2.037.411-2.037 1.476v.514c0 1.05.55 1.414 2.037 1.414h1.657v.406h.572v-.406h1.678c1.48 0 2.027-.344 2.027-1.414Zm-.573 0c0 .795-.384 1.004-1.454 1.004H96.24v-2.582h1.678c1.016 0 1.454.239 1.454 1.04v.537Zm-3.704 1.004h-1.657c-1.071 0-1.48-.21-1.48-1.01v-.55c0-.79.448-1.022 1.48-1.022h1.657v2.582Zm8.625-2.902v3.718h.569v-3.718h2.687v-.412h-5.923v.412h2.667Zm10.428 3.718v-4.128h-3.704c-1.367 0-1.931.34-1.931 1.278 0 .776.564 1.139 1.642 1.139l-1.87 1.713h.792l1.759-1.713h2.739v1.713h.573v-.002Zm-.573-2.12h-3.31c-.88 0-1.187-.115-1.187-.73 0-.64.322-.868 1.131-.868h3.366v1.598Zm8.098 2.12v-1.925h-4.883v1.925h-.568v-4.13h.568v1.791h4.883v-1.79h.571v4.13h-.571Zm8.649 0-2.848-4.128h-.875l-2.846 4.129h.628l.707-1.036h3.866l.701 1.035h.667Zm-1.665-1.457h-3.26l1.626-2.376 1.634 2.376Zm8.16 1.457v-1.713h-2.738l-1.769 1.713h-.78l1.857-1.713c-1.077 0-1.634-.362-1.634-1.138 0-.94.557-1.279 1.925-1.279h3.712v4.13h-.573Zm0-3.718h-3.365c-.807 0-1.142.226-1.142.868 0 .616.311.73 1.196.73h3.311v-1.598Zm11.121 3.718h.999l-3.976-2.164 3.887-1.966h-1.008l-3.47 1.772h-.924V79.53h-.57v4.13h.57v-1.943h.947l3.545 1.943Zm8.397-1.416c0 .808-.269 1.003-1.424 1.003h-2.405c-1.071 0-1.471-.207-1.471-1.003v-1.318c0-.803.438-1.02 1.471-1.02h2.405c1.097 0 1.424.203 1.424 1.02v1.318Zm.564 0v-1.292c0-1.2-.655-1.47-1.988-1.47h-2.4c-1.561 0-2.046.422-2.046 1.47v1.292c0 1.06.553 1.416 2.046 1.416h2.4c1.462 0 1.988-.24 1.988-1.416Zm8.648-2.714h1.223v4.13h-.57v-3.795h-.317l-2.967 3.795h-.292l-2.963-3.795h-.321v3.795h-.566v-4.13h1.216l2.787 3.522 2.77-3.522Zm3.838 4.13v-3.718h4.871v3.718h.575v-4.13h-6.023v4.13h.577Zm12.859 0-.699-1.035h-3.866l-.717 1.035h-.628l2.852-4.128h.865l2.848 4.129h-.655Zm-2.626-3.834-1.637 2.376h3.266l-1.629-2.376Zm10.932 3.834v-4.13h-.566v1.791h-4.876v-1.79h-.577v4.13h.577v-1.926h4.876v1.925h.566Zm7.977 0v-4.13h-1.11l-4.345 3.809h-.05V79.53h-.562v4.13h.925l4.357-3.81h.21v3.81h.575Zm6.877-2.12h-3.318c-.885 0-1.182-.115-1.182-.73 0-.64.313-.868 1.12-.868h3.38v1.598Zm.559 2.12v-4.128h-3.7c-1.359 0-1.93.34-1.93 1.278 0 .776.571 1.139 1.646 1.139l-1.877 1.713h.802l1.75-1.713h2.75v1.713h.559v-.002ZM77.211 89.778s12.38-.167 13.371.5c.99.656 1.98 1.326 2.146 2.643.164 1.325-.66 5.455-3.797 5.623-3.133.165-6.76-.168-6.76-.168l-.162 3.309-4.95-.165.152-11.742Z" fill="#201C26"/><path d="m82.331 93.084-.16 1.988s3.956.824 4.78 0c.826-.825.164-2.15-1.152-2.15-1.317 0-3.468.162-3.468.162Z" fill="#fff"/><path d="M92.729 92.922c1.326-1.486 3.634-3.803 8.905-3.475 5.281.333 8.092 2.477 8.092 4.972 0 2.472.156 5.778-2.978 6.766-3.13.997-6.27.997-8.413.672-2.145-.335-5.606-2.323-6.1-4.965-.496-2.646.494-3.97.494-3.97Z" fill="#241C24"/><path d="M97.681 96.061c-.301-2.136 1.48-3.474 2.964-3.474 1.483 0 3.952.168 3.789 2.981-.161 2.809-.32 2.643-1.804 3.142-1.486.495-4.457.996-4.949-2.649Z" fill="#fff"/><path d="M127.367 94.419c-.821-1.497-2.63-4.313-5.441-4.472-2.803-.167-6.6-.5-8.413.159-1.819.668-3.292 2.315-3.626 3.804-.328 1.493-.668 4.8 1.483 6.287 2.142 1.489 5.615 2.65 8.909 1.985 3.293-.66 6.43-1.985 6.926-4.797H121.6s-1.492 1.987-3.3 1.82c0 0-1.661.501-2.811-1.15-1.148-1.662-.987-3.148.164-4.638 1.165-1.493 4.293-.997 4.625-.333.327.663.823 1.653.823 1.653l6.266-.318Z" fill="#241C24"/><path d="M126.877 90.106h5.117v3.974h5.105v-4.302h5.285v11.907h-4.954v-3.968h-5.271v3.968h-5.448l.166-11.58Zm17.161-.328 14.682.168v2.976h-8.906v1.158h7.424v3.305h-7.759v1.495h9.568v3.137h-14.846l-.163-12.239Z" fill="#241C24"/><path d="M166.306 89.778h5.116s-.327.83.34.666c.649-.166 5.104-.34 6.429 1.322 1.316 1.65 1.815 3.801.49 5.29-1.325 1.49-2.478 2.149-3.294 2.149-.833 0-3.625.166-3.625.166v2.646h-5.456v-2.812s-3.466-.166-4.62-.495c-1.149-.333-3.3-1.653-3.3-3.802 0-2.152 1.156-3.973 2.812-4.134 1.642-.165 4.778-.165 4.778-.165l.33-.83Z" fill="#241C24"/><path d="m166.306 93.416-.164 2.48s-2.638.332-2.638-.654c0-.996.498-1.99 2.802-1.826Zm5.455.165.156 2.316s1.485.664 2.316-.494c.815-1.157-.669-1.986-2.472-1.822Z" fill="#fff"/><path d="M182.143 93.416v8.766h5.277v-8.766h4.781l.999-1.319-1.484-1.819h-13.858c.003 0-.663 2.644.821 2.805 1.483.17 3.464.333 3.464.333Z" fill="#241C24"/><path d="M197.484 90.278v3.303s6.275-.328 7.431.328c1.154.664 2.308 1.66 2.472 2.81.164 1.165-.164 2.987-1.318 3.974-1.154.992-2.47 1.652-3.801 1.652h-9.56v-11.9l4.776-.167Z" fill="#241C24"/><path d="M197.987 97.057v1.982h3.294c.821 0 1.981-1.817.493-2.147-1.482-.332-3.787.165-3.787.165Z" fill="#fff"/><path d="M9.574 35.21h8.417v28.61l-8.417-7.446V35.21Zm10.068-9.425h8.084v47.297l-8.084-7.783V25.785Zm9.736-9.425h8.25v44.811h-8.25v-44.81Zm9.894-9.425h8.58v44.977h-8.58V6.935Zm9.734 8.925h8.252v45.312h-8.252V15.86Zm10.232 9.751h8.083v39.524l-8.083 7.947v-47.47Zm9.564 9.431h8.256v20.674l-8.256 8.104V35.042Z" fill="#241C24"/><path d="M29.378 62.171h8.25v41.493h-8.25V62.171Zm9.894-8.93h8.08v50.423h-8.08V53.241Zm9.734 9.089h8.252v41.333h-8.252V62.329Z" fill="#B3B31C"/></g><defs><clipPath id="a"><path fill="#fff" d="M0 0h217v112H0z"/></clipPath></defs></svg>