<svg width="48" height="48" fill="none" xmlns="http://www.w3.org/2000/svg"><g clip-path="url(#a)" fill="#000"><path d="M23.99 27.281c.519 0 .94-.42.94-.937a.939.939 0 0 0-1.879 0c0 .517.421.937.94.937Z"/><path d="M23.454 47.732a.94.94 0 0 0 1.092 0c9.57-6.823 19.18-9.817 19.18-23.856V6.496a.938.938 0 0 0-.861-.934l-2.442-.204C34.826 4.893 29.32 3.057 24.498.048a.94.94 0 0 0-.996 0c-4.821 3.009-10.328 4.845-15.926 5.31l-2.44.204a.938.938 0 0 0-.862.934v17.38c0 14.435 10.959 17.995 19.18 23.856ZM6.153 7.358l1.58-.131C13.435 6.752 19.046 4.929 24 1.944c4.953 2.985 10.565 4.808 16.267 5.283l1.58.131v16.518c0 12.66-8.451 15.375-17.849 21.946-8.247-5.714-17.845-8.957-17.845-21.946V7.358Z"/><path d="M23.453 40.917a.934.934 0 0 0 1.094-.024c8.504-5.875 13.543-7.808 13.543-17.016V11.581a.938.938 0 0 0-.8-.927 41.445 41.445 0 0 1-12.86-4.15.957.957 0 0 0-.902.02 41.42 41.42 0 0 1-12.818 4.13.938.938 0 0 0-.8.927v12.296c0 9.295 5.519 11.576 13.543 17.04ZM11.789 12.38A43.273 43.273 0 0 0 23.05 8.848v13.746a.938.938 0 0 0 1.879 0V8.84a43.305 43.305 0 0 0 11.281 3.54v11.497c0 7.621-3.576 9.283-11.281 14.483v-8.266a.938.938 0 0 0-1.879 0v8.293c-7.199-4.782-11.262-6.826-11.262-14.51V12.38Z"/></g><defs><clipPath id="a"><path fill="#fff" d="M0 0h48v48H0z"/></clipPath></defs></svg>