<svg width="48" height="48" fill="none" xmlns="http://www.w3.org/2000/svg"><g clip-path="url(#a)" fill="#000"><path d="M24.017 47.137h-.002C11.258 47.137.88 36.758.878 24 .878 11.243 11.257.864 24.014.864 36.772.864 47.15 11.244 47.15 24c0 12.758-10.377 23.137-23.133 23.137ZM24.014 2.71c-11.74 0-21.29 9.551-21.29 21.29 0 11.74 9.552 21.291 21.291 21.291h.002c11.738 0 21.287-9.55 21.287-21.29 0-11.74-9.55-21.29-21.29-21.29Z"/><path d="M24.017 40.385h-.002C14.981 40.385 7.631 33.034 7.63 24c0-9.034 7.35-16.384 16.384-16.384C33.05 7.616 40.4 14.966 40.4 24s-7.35 16.385-16.382 16.385Zm-.003-30.923C15.998 9.462 9.476 15.983 9.476 24s6.523 14.538 14.54 14.538c8.016 0 14.537-6.522 14.537-14.538 0-8.017-6.522-14.538-14.539-14.538Z"/><path d="M24.014 26.877a2.86 2.86 0 0 1-2.033-.84 2.883 2.883 0 0 1-.001-4.071 2.858 2.858 0 0 1 2.034-.843c.769 0 1.491.299 2.035.843a2.883 2.883 0 0 1-.001 4.07 2.858 2.858 0 0 1-2.034.841Zm0-3.908c-.275 0-.534.107-.729.302a1.034 1.034 0 0 0 .001 1.46 1.058 1.058 0 0 0 1.457 0 1.034 1.034 0 0 0 0-1.46 1.025 1.025 0 0 0-.729-.302Z"/><path d="M25.396 23.542a.923.923 0 0 1-.653-1.576l6.371-6.37A.923.923 0 1 1 32.42 16.9l-6.37 6.37a.918.918 0 0 1-.653.27Zm-2.773-.01a.92.92 0 0 1-.653-.27l-4.73-4.732a.923.923 0 0 1 1.305-1.306l4.73 4.732a.923.923 0 0 1-.652 1.576Z"/></g><defs><clipPath id="a"><path fill="#fff" d="M0 0h48v48H0z"/></clipPath></defs></svg>