<svg width="160" height="77" fill="none" xmlns="http://www.w3.org/2000/svg"><path d="M130.095 46.82c-.623 0-1.131-.477-1.131-1.067 0-.013.006-.026.006-.04V27.626l.005-.077c.059-.531.533-.95 1.115-.95.58 0 1.063.419 1.119.95l.007.076v18.087c0 .014.004.027.004.04 0 .59-.506 1.067-1.125 1.067Zm2.103-23.545h-4.211c-3.56 0-3.772 2.919-3.772 4.8v17.263c0 1.885.212 4.804 3.772 4.804h4.211c3.56 0 3.778-2.919 3.778-4.804V28.076c.001-1.883-.218-4.8-3.778-4.8Zm-79.258 0h9.7v3.336h-4.616v23.531H52.94V23.275ZM63.392 50.14h4.97l.477-7.14h2.4l.469 7.14h4.977L74.03 23.276h-7.986l-2.652 26.866Zm5.627-10.093.877-13.44h.285l.87 13.44H69.02Zm14.947.688v5.057c0 .69.502.887.798.887.468 0 .797-.426.797-.887v-6.247c0-.844-.141-1.761-2.039-1.761h-2.06v-2.957h2.135c1.453 0 1.964-.351 1.964-1.99V27.49c0-.46-.329-.878-.797-.878-.296 0-.798.19-.798.878v4.383h-5.088v-3.796c0-1.882.222-4.802 3.777-4.802h4.217c3.561 0 3.776 2.92 3.776 4.802v4.3c0 2.912-1.926 3.716-3.455 3.64v.271c3.412-.083 3.455 2.684 3.455 3.646v5.405c0 1.885-.215 4.803-3.776 4.803h-4.217c-3.555 0-3.777-2.918-3.777-4.803v-4.603h5.088Zm10.027-17.46h11.766v26.867h-4.742v-23.53h-2.282v23.53h-4.742V23.275Zm15.45 26.867h5.082V41.01h2.906c3.561 0 4.128-2.916 4.128-4.804v-8.13c0-1.881-.567-4.801-4.128-4.801h-7.988v26.868Zm5.082-12.095V26.61h1.335c.553 0 .953.499.953 1.34v8.757c0 .845-.4 1.34-.953 1.34h-1.335v-.001Zm37.677-14.772h6.615v26.867h-5.087V33.293h-.182l-2.62 16.85h-4.062l-2.616-16.85h-.18v16.85h-5.087V23.274h6.604l3.303 18.881 3.312-18.88ZM42.094 26.006c-.058 2.724-.38 5.599-.787 7.315.148-2.958-.206-7.135-.878-10.397-.668-3.263-2.573-8.702-4.089-11.225-1.395 2.398-3.123 7.107-4.026 11.199-.91 4.088-.935 9.035-.935 10.522-.242-1.261-.845-5.713-.672-10.195.144-3.7.993-7.497 1.46-9.248 1.78-5.836 3.798-9.565 4.173-10.16.38.595 2.922 5.188 4.238 10.013 1.31 4.83 1.57 9.452 1.516 12.176Zm-5.722 20.846c-.787-1.507-2.018-4.379-2.133-8.814-.032-4.298 1.663-7.975 2.16-8.746.444.771 1.895 3.974 2.071 8.357.12 4.29-1.278 7.664-2.098 9.203Zm6.187-32.96C40.954 6.751 36.921.945 36.372 0c-.877 1.33-4.09 6.456-5.722 12.143-1.782 6.341-2.044 11.965-1.431 17.51.614 5.536 2.922 11.222 2.922 11.222 1.225 2.988 3.062 6.183 4.258 7.754 1.75-2.31 5.785-9.201 7.037-18.208.698-5.005.725-9.393-.877-16.53Z" fill="#007BC4"/><path d="M26.513 50.136v8.444l.037-.034a7.394 7.394 0 0 1 10.534 0c2.913 2.938 2.913 7.715 0 10.651a.233.233 0 0 1-.034.037v.004a.234.234 0 0 0-.043.038 14.787 14.787 0 0 1-10.494 4.371 14.795 14.795 0 0 1-10.523-4.404c-5.12-5.18-5.733-13.189-1.825-19.04a14.68 14.68 0 0 1 1.825-2.238 14.756 14.756 0 0 1 10.523-4.403V23.42C11.878 23.419 0 35.417 0 50.203c0 14.8 11.878 26.795 26.513 26.795 7.64 0 14.514-3.268 19.349-8.484V50.136H26.513Zm127.552 20.516c0 2.554-1.146 3.008-4.061 3.008h-2.684V61.998h2.684v4.501h.449c2.637 0 3.612.624 3.612 2.956v1.198ZM131.67 64.2h-2.033v9.469h-2.553V64.2h-2.178v-2.213h6.764V64.2Zm-20.649 5.3c0 2.37-1.187 3.007-3.828 3.007v1.153h-2.61v-1.153c-2.652 0-3.853-.637-3.853-3.006v-3.645c0-2.38 1.153-2.986 3.853-2.986v-.873h2.61v.873c2.683 0 3.828.606 3.828 2.986v3.645Zm-24.329-5.3h-3.67v2.295h3.285v2.21h-3.286v2.75h3.671v2.213h-6.44V61.987h6.44V64.2Zm-22.257 9.46h-2.687v-5.105H60.37v5.105h-2.683V61.998h2.683v4.501h1.379v-4.501h2.685V73.66Zm94.382-14.572H52.94V77h105.877V59.088Zm-55.478 6.694v3.734c0 .685.217.841.809.841h.434v-5.434h-.434c-.591 0-.809.175-.809.859Zm47.261 2.773h-.597V71.6h.597c.603 0 .783-.154.783-.82v-1.404c0-.67-.18-.821-.783-.821Zm-42.995-3.632h-.413v5.434h.413c.597 0 .813-.17.813-.856v-3.75c0-.687-.216-.828-.813-.828Z" fill="#007BC4"/></svg>