<svg width="196" height="52" fill="none" xmlns="http://www.w3.org/2000/svg"><g clip-path="url(#a)"><path d="M51.757.673H.096V51.94h51.661V.673Z" fill="#ED1A3A"/><path d="M43.414 5.78c-1.188 0-2.087.782-2.535 1.721L34.375 18.13c-.452.983-.78 2.087-.78 2.818 0 .653.09 1.23.33 1.762l7.037 16.682H13.638c-.984 0-1.795-.98-1.795-1.885V8.77c-.207-3.928-5.897-3.926-6.022.123l.124 30.498c0 3.316 2.583 5.972 5.898 5.972h37.254l-9.08-23.058c-.251-.859-.363-1.637.248-2.66l6.007-9.696c.085-.202.208-1.057.208-1.302-.12-1.761-1.51-2.944-3.066-2.867Zm-14.75.014c-1.461.01-2.921 1.012-2.921 2.976v20.563c0 2.986-4.047 2.74-4.047 0V8.77c0-3.928-5.855-3.928-5.855 0v20.727c0 4.74 3.566 7.892 7.824 7.892 4.372 0 7.927-3.152 7.927-7.892V8.77c0-2.003-1.467-2.986-2.928-2.976Z" fill="#fff"/><path d="M61.878 6.698v13.564c0 3.39-.348 5.275-3.13 5.275-.52 0-.867 0-1.387-.186v5.838c1.04.38 1.735.38 2.606.38 7.819 0 8.167-5.842 8.167-9.235v-9.795h4.517v18.65h6.252V6.698H61.878Zm19.112 0 8.514 17.71-3.127 6.78h6.776l10.077-24.49h-6.775l-3.65 10.36-4.345-10.36h-7.47Zm24.151 24.491h6.256v-10.55l6.428 10.55h7.991l-8.859-12.622 8.686-11.87h-7.471l-6.775 10.361V6.698h-6.256v24.49Z" fill="#000"/><path d="M136.068 31.945c8.339 0 12.161-6.407 12.161-13.002 0-6.404-3.822-12.811-12.161-12.811-8.166 0-11.988 6.407-11.988 12.812 0 6.594 3.822 13 11.988 13Zm0-5.841c-2.781 0-5.56-2.451-5.56-7.16 0-4.71 2.779-6.97 5.56-6.97 2.954 0 5.733 2.26 5.733 6.97 0 4.709-2.779 7.16-5.733 7.16Zm15.29-19.406v24.49h6.08l8.687-14.692v14.693h6.083V6.698h-6.083l-8.687 14.696V6.698h-6.08Zm10.597-1.319c2.607 0 5.213-.942 6.431-3.77L164.737.104c-.523 1.885-2.086 2.071-2.782 2.071-.52 0-2.258-.186-2.606-2.071l-3.646 1.505c1.04 2.828 3.821 3.77 6.252 3.77Zm16.856 1.319v13.564c0 3.39-.351 5.275-3.129 5.275-.52 0-.868 0-1.391-.186v5.838c1.043.38 1.739.38 2.606.38 7.819 0 8.167-5.842 8.167-9.235v-9.795h4.517v18.65h6.255V6.698h-17.025Zm-121.4 38.236h.88v-4.545h5.14v4.544h.881v-8.908h-.88v3.649h-5.14v-3.649h-.88v8.909Zm9.141 0h4.82v-.716h-3.94v-3.916h3.784v-.715h-3.784v-2.843h3.94v-.719h-4.82v8.909Zm10.622 0h.87v-1.226h.367c2.901 0 4.1-1.704 4.1-3.49 0-2.09-1.556-3.474-4.1-3.474h-.366v-1.07h-.87v1.07h-.355c-2.56 0-4.113 1.384-4.113 3.475 0 1.785 1.2 3.49 4.113 3.49h.354v1.225Zm.87-7.474c2.911.037 3.55 1.387 3.55 2.759 0 2.14-1.431 2.696-3.55 2.77v-5.53Zm-.87 5.53c-2.118-.075-3.549-.632-3.549-2.771 0-1.372.636-2.722 3.55-2.76v5.53Zm8.517 1.944h.846v-8.19h2.387v-.719h-5.616v.719h2.383v8.19Zm4.273 0h.99l2.387-3.913h.758v3.913h.883v-8.909h-2.07c-2.716 0-3.108 1.789-3.108 2.579 0 1.505 1.188 2.417 2.585 2.367l-2.425 3.963Zm4.135-4.632h-1.272c-.72 0-2.152-.084-2.152-1.785 0-1.652 1.516-1.773 2.237-1.773h1.187v3.558Zm3.136 4.632h.88v-4.545h5.14v4.544h.881v-8.908h-.881v3.649h-5.14v-3.649h-.88v8.909Zm8.185-.001h.883l1.234-2.892h3.781l1.238 2.892h.88l-4.025-9.138-3.991 9.138Zm2.437-3.595 1.554-3.646 1.591 3.646h-3.145Zm6.597 3.596h.99l2.387-3.913h.758v3.913h.88v-8.909h-2.067c-2.716 0-3.108 1.789-3.108 2.579 0 1.505 1.187 2.417 2.581 2.367l-2.421 3.963Zm4.135-4.632h-1.272c-.723 0-2.155-.084-2.155-1.785 0-1.652 1.519-1.773 2.24-1.773h1.187v3.558Zm6.108 4.632h.881v-4.315l4.025 4.315h1.149l-4.344-4.594 4.272-4.315h-1.077l-4.025 4.156v-4.156h-.881v8.909Zm11.735.279c2.669 0 4.858-1.907 4.858-4.715 0-2.806-2.189-4.703-4.858-4.703-2.632 0-4.821 1.897-4.821 4.703 0 2.809 2.189 4.715 4.821 4.715Zm0-.752c-2.19 0-3.903-1.63-3.903-3.963s1.713-3.997 3.903-3.997c2.192 0 3.94 1.664 3.94 3.997s-1.748 3.963-3.94 3.963Zm6.07.473h.846l.83-6.575 3.305 6.976 3.267-6.976.884 6.575h.792l-1.234-9.26-3.709 7.96-3.746-7.96-1.235 9.26Zm11.578-8.909v8.909h.88v-8.19h5.141v8.19h.88v-8.909h-6.901Zm8.189 8.908h.88l1.234-2.892h3.784l1.234 2.892h.881l-4.026-9.138-3.987 9.138Zm2.434-3.595 1.553-3.646 1.592 3.646h-3.145Zm6.828 3.596h.881v-4.545h5.14v4.544h.883v-8.908h-.883v3.649h-5.14v-3.649h-.881v8.909Zm9.141-8.908v9.31l6.146-7.45v7.048h.868v-9.26l-6.131 7.4v-7.048h-.883Zm8.997 8.908h.989l2.387-3.913h.758v3.913h.884v-8.909h-2.068c-2.719 0-3.11 1.789-3.11 2.579 0 1.505 1.187 2.417 2.584 2.367l-2.424 3.963Zm4.134-4.632h-1.271c-.721 0-2.152-.084-2.152-1.785 0-1.652 1.516-1.773 2.239-1.773h1.184v3.558Z" fill="#000"/></g><defs><clipPath id="a"><path fill="#fff" d="M0 0h196v52H0z"/></clipPath></defs></svg>