<svg width="202" height="56" fill="none" xmlns="http://www.w3.org/2000/svg"><g clip-path="url(#a)"><path d="M23.216 11.762c3.56 9.086-2.244 14.918-8.025 20.76-5.38 5.967-10.12 12.171-.588 23.336-3.56-9.084 2.245-14.917 8.02-20.753 5.386-5.981 10.125-12.177.593-23.343Z" fill="#EF3D42"/><path d="M14.604.142c3.565 9.09-2.236 14.918-8.022 20.756C1.203 26.87-3.535 33.075 6.001 44.24c-3.563-9.092 2.24-14.92 8.02-20.757 5.382-5.974 10.115-12.176.582-23.341Zm146.274 35.984v18.57h8.085v-6.798h8.885v-4.065h-8.885v-3.642h17.625v14.506h8.086V40.19H202v-4.064h-41.122Zm-17.349 14.54v-3.219h10.544V43.38h-10.544v-3.19h13.543v-4.066h-21.628v18.572h21.795v-4.03h-13.71Z" fill="#00B274"/><path d="M58.248 36.126H35.842v4.065h7.16v14.506h8.086V40.19h7.16v-4.064ZM64.37 47.66l3.742-7.188 3.58 7.188H64.37Zm9.843-11.534h-8.668l-10.091 18.57h5.255l1.659-3.187H73.7l1.654 3.188h8.955L74.213 36.125Z" fill="#EF3D42"/><path d="M125.522 36.126v9.284l-12.932-9.284h-6.275v18.57h5.534V44.48l13.279 10.218h5.927V36.125h-5.533Z" fill="#00B274"/><path d="M103.567 36.126H81.631v4.065h7.159v14.506h8.087V40.19h6.69v-4.064Z" fill="#EF3D42"/></g><defs><clipPath id="a"><path fill="#fff" d="M0 0h202v56H0z"/></clipPath></defs></svg>